<svg id="email" xmlns="http://www.w3.org/2000/svg" width="733.46" height="301.95" viewBox="0 0 733.46 301.95">
  <path id="emailBase" d="M710.24,0H303.76a23.29,23.29,0,0,0-23.22,23.23V278.72A23.29,23.29,0,0,0,303.76,302H710.24a23.29,23.29,0,0,0,23.22-23.23V23.23A23.29,23.29,0,0,0,710.24,0Zm-8.72,17.42L520.36,153.3a24.26,24.26,0,0,1-26.72,0L312.48,17.42ZM604.75,162.26l98.72,122c.1.12.22.21.32.32H310.21c.1-.11.22-.2.32-.32l98.72-121.95a8.71,8.71,0,0,0-13.54-11L298,272.05V28.31L483.19,167.23a41.59,41.59,0,0,0,47.62,0L716,28.31V272.05L618.29,151.3a8.71,8.71,0,0,0-13.54,11Z" fill="#fff"/>
  <line id="line3" x1="239" y1="52.98" x2="7" y2="52.98" fill="none" stroke="#fff" stroke-linecap="round" stroke-miterlimit="10" stroke-width="14"/>
  <line id="line2" x1="184" y1="156.42" x2="7" y2="156.42" fill="none" stroke="#fff" stroke-linecap="round" stroke-miterlimit="10" stroke-width="14"/>
  <line id="line1" x1="133" y1="259.86" x2="7" y2="259.86" fill="none" stroke="#fff" stroke-linecap="round" stroke-miterlimit="10" stroke-width="14"/>
</svg>
