<svg id="Capa_1" data-name="Capa 1" xmlns="http://www.w3.org/2000/svg" width="384" height="384" viewBox="0 0 384 384">
  <path d="M64,0V80H0V224H64V384H288l96-96V0ZM16,208V96H256V208ZM288,361.38V288h73.38ZM368,272H272v96H80V224H272V80H80V16H368Z" fill="#fff"/>
  <path d="M70.42,117.84v49c0,3.64-.4,6.35-1.2,8.11s-2.47,2.64-5,2.64-4.16-.9-5-2.64-1.2-4.47-1.2-8.11v-2.13H45.44v3a36.56,36.56,0,0,0,.78,7.68A15.73,15.73,0,0,0,49,181.74,13.19,13.19,0,0,0,54.61,186a22.88,22.88,0,0,0,9,1.5c7,0,12.16-1.57,15.55-4.65s5.09-8.32,5.09-15.62V117.84Z" fill="#fff"/>
  <path d="M144.9,130.86a18.24,18.24,0,0,0-3.17-6.57,16.09,16.09,0,0,0-5.81-4.66,20.08,20.08,0,0,0-8.88-1.77H102.85V186.4h13.82V159h7.39a30.82,30.82,0,0,0,8.93-1.26,18.28,18.28,0,0,0,6.87-3.75,16.57,16.57,0,0,0,4.41-6.41,24.55,24.55,0,0,0,1.59-9.22A30.74,30.74,0,0,0,144.9,130.86Zm-15.41,15.52a9.08,9.08,0,0,1-6.67,2.52h-6.15V128.05h5.76c3.46,0,5.92.91,7.39,2.69s2.21,4.41,2.21,7.87S131.18,144.72,129.49,146.38Z" fill="#fff"/>
  <path d="M184.38,149.44v10.18h9.11v7a12.53,12.53,0,0,1-.87,4.87,11.06,11.06,0,0,1-2.16,3.41,9.38,9.38,0,0,1-2.78,2,7.07,7.07,0,0,1-2.75.67,6.55,6.55,0,0,1-4.85-1.87,12.23,12.23,0,0,1-2.88-5.37,42.9,42.9,0,0,1-1.39-8.5c-.26-3.33-.39-7-.39-11.14,0-8.56.74-14.72,2.21-18.41s3.87-5.59,7.2-5.59a5.9,5.9,0,0,1,3.62,1.11,9.33,9.33,0,0,1,2.43,2.78,12.82,12.82,0,0,1,1.39,3.7,17.86,17.86,0,0,1,.42,3.92h13.25q0-10.49-5-16.08t-16.32-5.63a24.67,24.67,0,0,0-11,2.2,17.42,17.42,0,0,0-7.08,6.58,30.46,30.46,0,0,0-3.8,10.91,92.47,92.47,0,0,0-1.1,15.15,141.14,141.14,0,0,0,.78,15.7,34.81,34.81,0,0,0,3,11.38,15,15,0,0,0,6.24,6.81A21.3,21.3,0,0,0,182,187.46a19.3,19.3,0,0,0,8.4-1.68,14.52,14.52,0,0,0,6-5.72h.19v6.34h10.18v-37Z" fill="#fff"/>
</svg>
