<svg id="malt" xmlns="http://www.w3.org/2000/svg" width="511.03" height="511.03" viewBox="0 0 511.03 511.03">
  <defs>
    <style>
      .cls-1 {
        fill: #1a1a1a;
      }

      .cls-2 {
        fill: #e6e6e6;
      }

      .cls-3 {
        fill: none;
        stroke: #e6e6e6;
        stroke-linecap: round;
        stroke-miterlimit: 10;
        stroke-width: 6px;
        stroke-dasharray: 23.66 23.66;
      }

      #malt:hover .cls-3 { transform-origin: center center; animation: rotate 15s infinite linear }

      @keyframes rotate {
       0% {
       transform: rotate(0deg)
       }
       100% {
       transform: rotate(360deg)
  }
}
    </style>
  </defs>
  <circle id="BlackBG" class="cls-1" cx="255.52" cy="255.52" r="255.52"/>
  <g id="maltOutline">
    <path class="cls-2" d="M257.26,273.13a1.21,1.21,0,0,0-.05-.14,6.89,6.89,0,0,0-6.4-4.29h0a6.9,6.9,0,0,0-6.4,4.29l0,.13-18,47.25a5.82,5.82,0,1,0,10.87,4.14l3.06-8h20.89l3,8a5.81,5.81,0,0,0,5.44,3.76,5.94,5.94,0,0,0,2.06-.37,5.83,5.83,0,0,0,3.39-7.5Zm-12.53,31.73L250.79,289l6,15.91Z" transform="translate(-0.48 -0.98)"/>
    <path class="cls-2" d="M205.05,274.64a6.9,6.9,0,0,0-13.33-.78l-.06.19-8.74,30.68L173.85,274l-.07-.25a6.91,6.91,0,0,0-13.32.93s0,.05,0,.08L152,321.41a5.82,5.82,0,0,0,11.45,2.07l4.88-27,8,27.25.06.19a6.91,6.91,0,0,0,13.11,0,2.17,2.17,0,0,0,.07-.24l7.75-27.18,5.18,27.06A5.82,5.82,0,1,0,214,321.35Z" transform="translate(-0.48 -0.98)"/>
    <path class="cls-2" d="M310,316.62h0c-3.35,0-7.59,0-10.93,0v-42.1a5.82,5.82,0,0,0-11.64,0v47.88a5.82,5.82,0,0,0,4.75,5.72c.45.09.79.15,6.13.15,2.57,0,6.3,0,11.76-.05a5.82,5.82,0,0,0,0-11.64Z" transform="translate(-0.48 -0.98)"/>
    <path class="cls-2" d="M355,268.71H328.57a5.82,5.82,0,1,0,0,11.64h7.36v42.09a5.82,5.82,0,1,0,11.64,0V280.35H355a5.82,5.82,0,1,0,0-11.64Z" transform="translate(-0.48 -0.98)"/>
    <path class="cls-2" d="M390.84,223.56h1.29A12.88,12.88,0,0,0,405,210.69V178.11a12.88,12.88,0,0,0-12.87-12.87h-4.3l-59-34.64c-27.25-16-50.39-23.5-72.86-23.6-22.43.1-45.57,7.6-72.81,23.6l-59,34.64h-4.29A12.88,12.88,0,0,0,107,178.11v32.58a12.88,12.88,0,0,0,12.87,12.87h1.29V365.3c-9.26,2.52-14.07,11-14.07,19.47,0,10.06,6.83,20.23,19.89,20.23H385c13.06,0,19.89-10.17,19.89-20.23,0-8.43-4.81-16.95-14.07-19.47V223.56ZM189.05,140.64c25.4-14.92,46.68-21.91,66.92-22,20.28.09,41.56,7.08,67,22l41.9,24.6H147.15ZM393.27,384.77c0,.88-.23,8.59-8.25,8.59H127c-8,0-8.25-7.71-8.25-8.59s.23-8.58,8.25-8.58a5.82,5.82,0,0,0,5.82-5.82V352.52H379.2v17.85a5.82,5.82,0,0,0,5.82,5.82c8,0,8.25,7.71,8.25,8.58ZM132.8,340.87v-84.4H379.2v84.4Zm152.53-129a5.82,5.82,0,1,0,0,11.64H379.2v21.27H132.8V223.56H233.06a5.82,5.82,0,0,0,0-11.64H119.87a1.24,1.24,0,0,1-1.23-1.23V178.11a1.26,1.26,0,0,1,1.23-1.23H392.13a1.26,1.26,0,0,1,1.23,1.23v32.58a1.26,1.26,0,0,1-1.23,1.23Z" transform="translate(-0.48 -0.98)"/>
    <path class="cls-2" d="M259.19,211.92a5.82,5.82,0,0,0,0,11.64h0a5.82,5.82,0,0,0,0-11.64Z" transform="translate(-0.48 -0.98)"/>
  </g>
  <g id="whiteDashes">
    <circle class="cls-3" cx="256.02" cy="255.01" r="233.5"/>
  </g>
</svg>
