<svg id="wheat" xmlns="http://www.w3.org/2000/svg" width="511.03" height="511.03" viewBox="0 0 511.03 511.03">
  <defs>
    <style>
      .cls-1 {
        fill: #1a1a1a;
      }

      .cls-2 {
        fill: #e6e6e6;
      }

      .cls-3 {
        fill: none;
        stroke: #e6e6e6;
        stroke-linecap: round;
        stroke-miterlimit: 10;
        stroke-width: 6px;
        stroke-dasharray: 23.66 23.66;
      }

      .cls-4 {
        fill: #00d00b;
      }
    </style>
  </defs>
  <circle id="blackBG" class="cls-1" cx="255.52" cy="255.52" r="255.52"/>
  <g id="wheatOutline">
    <path class="cls-2" d="M429.35,309.29c-9.52-7.4-24.61-11.49-44.84-12.15A223.14,223.14,0,0,0,339,300.77c-6.24-16.87-18-30.22-33.53-38-17.48-8.72-37.77-9.41-57.14-1.94a6.88,6.88,0,0,0-4.23,7.95l.13.49a73.1,73.1,0,0,0-39.9,3.94,6.89,6.89,0,0,0-4.23,7.95l.12.5a73.12,73.12,0,0,0-39.9,3.94,6.88,6.88,0,0,0-4.23,7.95c0,.17.09.33.13.5A73.07,73.07,0,0,0,116.35,298a6.88,6.88,0,0,0-4.22,8,74.64,74.64,0,0,0,12.7,27.94c-19,6.93-34.81,21.6-44.18,41.53a6.87,6.87,0,0,0,2.43,8.67A81.17,81.17,0,0,0,127.72,398a74.1,74.1,0,0,0,14.69-1.48A74.79,74.79,0,0,0,146.12,427a6.88,6.88,0,0,0,6.52,4.7,6.51,6.51,0,0,0,1.24-.12A73.12,73.12,0,0,0,190,414.09c.05.17.1.34.16.5a6.87,6.87,0,0,0,6.51,4.7,6.62,6.62,0,0,0,1.25-.12A73,73,0,0,0,234,401.71l.15.49a6.88,6.88,0,0,0,6.52,4.7,7.64,7.64,0,0,0,1.25-.11A73.13,73.13,0,0,0,278,389.32c.06.17.11.33.16.49a6.88,6.88,0,0,0,6.52,4.7,6.5,6.5,0,0,0,1.24-.11c19.86-3.65,36.52-14.31,46.92-30,9.63-14.59,13.09-32.32,9.87-50.27,29.57-5.21,64.24-4.82,78.25,6.05a6.87,6.87,0,1,0,8.43-10.85Zm-267.59.51a68.26,68.26,0,0,0,30.68,31.71L173.07,347c-21.38-2.19-38.79-16.79-45.86-38.07A56.61,56.61,0,0,1,161.76,309.8Zm-16.29,71.73c-16.12,5-33.73,2.92-49.52-5.71,9-15.64,23-26.58,39.27-30.74a65.8,65.8,0,0,0,23.68,13A65.8,65.8,0,0,0,145.47,381.53Zm41,16.26a56.77,56.77,0,0,1-29,18.83c-5-21.85,2.21-43.39,19.33-56.43l19.35-5.44a68.28,68.28,0,0,0-9.66,43ZM171.2,296.5a56.72,56.72,0,0,1,34.56.91,68.19,68.19,0,0,0,30.67,31.71l-19.35,5.45c-21.38-2.19-38.79-16.79-45.88-38.07Zm59.29,88.9a56.66,56.66,0,0,1-29,18.84c-5-21.86,2.22-43.4,19.34-56.44l19.35-5.44A68.28,68.28,0,0,0,230.49,385.4ZM215.2,284.11a56.76,56.76,0,0,1,34.57.91,68.1,68.1,0,0,0,30.67,31.71l-19.36,5.45c-21.4-2.19-38.8-16.79-45.88-38.07ZM274.49,373a56.62,56.62,0,0,1-29,18.84c-5-21.86,2.23-43.4,19.35-56.44L284.17,330A68.3,68.3,0,0,0,274.49,373ZM259.2,271.73c13.86-3.87,27.92-2.73,40.16,3.38A54.42,54.42,0,0,1,325.54,304l-20.46,5.76c-21.39-2.19-38.8-16.79-45.88-38.06Zm62.12,85c-7.24,11-18.41,18.87-31.85,22.68-5-21.86,2.23-43.4,19.36-56.44l20.42-5.75C331.62,331.46,328.85,345.38,321.32,356.78Z" transform="translate(-0.99 -0.48)"/>
    <path class="cls-2" d="M91.08,144.75c14-10.9,48.7-11.28,78.25-6.06a72.28,72.28,0,0,0-.87,19.49,6.88,6.88,0,1,0,13.69-1.29,58.45,58.45,0,0,1,.59-15l20.44,5.76c17.12,13,24.38,34.58,19.34,56.43a61.26,61.26,0,0,1-12.11-4.85,6.87,6.87,0,1,0-6.47,12.13A76.59,76.59,0,0,0,226.09,219a6.94,6.94,0,0,0,5-1,7.28,7.28,0,0,0,2.91-4.07,73.12,73.12,0,0,0,36.09,17.47,6.9,6.9,0,0,0,5-1A7.33,7.33,0,0,0,278,226.3a73,73,0,0,0,36.09,17.48,6.94,6.94,0,0,0,5-1,7.37,7.37,0,0,0,2.92-4.08,73,73,0,0,0,36.08,17.47,6.93,6.93,0,0,0,7.76-4.58,74.78,74.78,0,0,0,3.7-30.51,73.92,73.92,0,0,0,14.68,1.48,81.4,81.4,0,0,0,44.66-13.83,6.88,6.88,0,0,0,2.44-8.68c-9.4-19.93-25.16-34.6-44.2-41.53a74.61,74.61,0,0,0,12.72-28,6.88,6.88,0,0,0-4.23-8,73.05,73.05,0,0,0-39.9-3.93l.12-.51a6.87,6.87,0,0,0-4.23-8,73.13,73.13,0,0,0-39.9-3.93c0-.17.09-.34.13-.51a6.89,6.89,0,0,0-4.24-8,73,73,0,0,0-39.89-3.92l.12-.5a6.88,6.88,0,0,0-4.23-8C244.28,78,224,78.68,206.51,87.39c-15.55,7.74-27.3,21.1-33.55,38a222.2,222.2,0,0,0-45.48-3.64c-20.22.67-35.3,4.76-44.83,12.15a6.88,6.88,0,0,0,8.43,10.87Zm175.44,71.7a56.77,56.77,0,0,1-29-18.83,68.31,68.31,0,0,0-9.66-43.05L247.16,160C264.3,173,271.56,194.59,266.52,216.45Zm44,12.39a56.75,56.75,0,0,1-29-18.84,68.22,68.22,0,0,0-9.66-43l19.33,5.44c17.13,13,24.39,34.58,19.36,56.44Zm44,12.38a56.7,56.7,0,0,1-29-18.83,68.21,68.21,0,0,0-9.67-43l19.34,5.44C352.3,197.81,359.56,219.35,354.53,241.22Zm61.52-40.81c-15.83,8.63-33.44,10.69-49.53,5.72a65.86,65.86,0,0,0-13.44-23.45,65.63,65.63,0,0,0,23.68-13c16.32,4.15,30.28,15.1,39.29,30.73ZM384.8,133.47c-7.08,21.28-24.49,35.88-45.89,38.09l-19.37-5.46a68.23,68.23,0,0,0,30.68-31.7A56.69,56.69,0,0,1,384.8,133.47Zm-44-12.38c-7.08,21.27-24.48,35.87-45.89,38.08l-19.37-5.45A68.21,68.21,0,0,0,306.21,122,56.62,56.62,0,0,1,340.79,121.09Zm-44-12.39c-7.07,21.27-24.48,35.87-45.88,38.08l-19.36-5.45a68.19,68.19,0,0,0,30.67-31.71A56.59,56.59,0,0,1,296.78,108.7Zm-84.14-9c12.24-6.1,26.29-7.24,40.14-3.37-7.08,21.26-24.48,35.86-45.87,38.06l-20.47-5.76A54.47,54.47,0,0,1,212.64,99.7Z" transform="translate(-0.99 -0.48)"/>
    <path class="cls-2" d="M182.23,179.56a6.86,6.86,0,0,0-3.07,9.22v0a6.87,6.87,0,0,0,6.14,3.79,6.88,6.88,0,0,0,6.14-10A6.87,6.87,0,0,0,182.23,179.56Z" transform="translate(-0.99 -0.48)"/>
  </g>
  <g id="whiteDashes">
    <circle class="cls-3" cx="255.52" cy="255.52" r="233.5"/>
  </g>
  <g id="selected">
    <path class="cls-4" d="M256.5,4.5a251.56,251.56,0,0,1,97.9,483.23A251.5,251.5,0,0,1,78.67,78.16,250.67,250.67,0,0,1,256.5,4.5m0-4C115.39.5,1,114.89,1,256S115.39,511.5,256.5,511.5,512,397.11,512,256,397.61.5,256.5.5Z" transform="translate(-0.99 -0.48)"/>
  </g>
</svg>
