<svg id="bucketBeer" xmlns="http://www.w3.org/2000/svg" width="511.03" height="511.03" viewBox="0 0 511.03 511.03">
  <defs>
    <style>
      .cls-1 {
        fill: #1a1a1a;
      }

      .cls-2 {
        fill: #e6e6e6;
      }

      .cls-3 {
        fill: none;
        stroke: #e6e6e6;
        stroke-linecap: round;
        stroke-miterlimit: 10;
        stroke-width: 6px;
        stroke-dasharray: 23.66 23.66;
      }

      #bucketBeer:hover .cls-3 { transform-origin: center center; animation: rotate 15s infinite linear }

      @keyframes rotate {
       0% {
       transform: rotate(0deg)
       }
       100% {
       transform: rotate(360deg)
  }
}
    </style>
  </defs>
  <circle id="BlackBG" class="cls-1" cx="255.52" cy="255.52" r="255.52"/>
  <g id="bucketBeerOutline">
    <path class="cls-2" d="M409.87,245.67a22.14,22.14,0,0,0-22.19-19.75h-13.5a236,236,0,0,0-6.4-27.89c-4.41-16.09-8.58-31.3-6.25-50.05l2.79-22.5a13,13,0,0,0,7.5-10.21l1.79-14.42a13,13,0,0,0-11.33-14.49l-43.9-5.46a13.09,13.09,0,0,0-14.5,11.33L302.1,106.6a13,13,0,0,0,4.77,11.75l-2.79,22.49a86.83,86.83,0,0,1-1.72,9.46c0,.07,0,.14-.05.2-3.37,14-9.78,25.39-16.51,37.29-1.16,2.06-2.34,4.15-3.52,6.28L269,190a14,14,0,0,0-14.32,3.87H229.6c-1.12-2-2.24-4-3.34-5.95-6.76-11.94-13.2-23.34-16.58-37.43l0-.14a85,85,0,0,1-1.73-9.49l-2.79-22.49a13,13,0,0,0,4.77-11.73l-1.78-14.41a13.08,13.08,0,0,0-14.53-11.3l-43.85,5.44a13,13,0,0,0-11.34,14.53l1.78,14.41a13,13,0,0,0,7.49,10.19l2.8,22.5c2.23,17.9-1.48,32.56-5.65,47.87l-19.48,6a13.94,13.94,0,0,0-9.23,17.4l2.27,7.38a21.9,21.9,0,0,0,1.44,42.7L135.52,372l-9.77,5.63a7.26,7.26,0,0,0-3.13,8.53,6.87,6.87,0,0,0,9.8,3.43l5.32-3.07,4.15,27.18c1.55,10.28,9.12,17.46,18.42,17.46H351.69c9.3,0,16.87-7.18,18.41-17.44l6.27-41a6.84,6.84,0,0,0-13.53-2.07l-6.27,41c-.32,2.16-1.72,5.82-4.88,5.82H160.31c-3.16,0-4.56-3.66-4.88-5.83l-5-32.47,84.28-48.64a27,27,0,0,0,36.05,2.08,26.44,26.44,0,0,0,8.13-10.93,27,27,0,1,0-51-3l-79.66,46-14.52-94.95h149L312,316.68a6.84,6.84,0,0,0,11.61,0l29.29-46.95h25.4l-6.21,41a6.85,6.85,0,0,0,5.74,7.79,6.15,6.15,0,0,0,1,.08,6.86,6.86,0,0,0,6.76-5.82l6.57-43.4a21.94,21.94,0,0,0,17.68-23.67ZM247.25,300.13a13.29,13.29,0,0,1,18.57,17.39,12.54,12.54,0,0,1-2.95,3.91,13.31,13.31,0,0,1-20.46-3.18h0a13.28,13.28,0,0,1,4.84-18.12ZM317.38,94.57l42.56,5.29-1.62,13-42.56-5.27Zm33.12,31.16L348,146.29c-.15,1.19-.27,2.36-.37,3.53L317.15,146q.28-1.72.51-3.51L320.21,122Zm-85.83,77.48a.25.25,0,0,1,.3-.14l34.36,10.56a.27.27,0,0,1,.18.32l-3.69,12H257.67Zm-49.73,4.59a.28.28,0,0,1,.25-.26H249l-5.66,18.38H214.94V207.8Zm-1-13.88a13.94,13.94,0,0,0-12.68,13.88v18.12H185l-7.83-25.43a14,14,0,0,0-16.91-9.36,137.39,137.39,0,0,0,4.48-27.56L198,159.45C201.9,172.46,208,183.34,213.94,193.92ZM161.5,125.73,191.79,122l2.55,20.55q.22,1.78.51,3.51l-30.42,3.78c-.11-1.17-.23-2.34-.38-3.53Zm33.12-31.16,1.62,13.07-42.56,5.27-1.62-13ZM129.21,215.06a.27.27,0,0,1,.15-.12l34.37-10.59a.3.3,0,0,1,.33.16l6.59,21.41H132.48l-3.29-10.69a.22.22,0,0,1,0-.17Zm-5.28,41a8.25,8.25,0,0,1-8.11-9.61,8.35,8.35,0,0,1,8.31-6.83H263.94l10.25,16.44ZM317.8,300.12l-37.73-60.51h75.48Zm-7.66-74.2L312.6,218a14,14,0,0,0-9.21-17.41l-7.73-2.38,2.06-3.66c6.08-10.77,12.3-21.81,16.33-35.07l33.24,4.12c.66,13.88,4,26.13,7.29,38.08a241.84,241.84,0,0,1,5.74,24.27Zm77.69,30.13H361.42l10.26-16.44h16.39a8.22,8.22,0,0,1,8.1,9.61,8.37,8.37,0,0,1-8.34,6.83Z" transform="translate(-0.48 -0.98)"/>
    <path class="cls-2" d="M373.21,334.7a7,7,0,0,0-5.83,7v0a6.48,6.48,0,0,0,3.61,5.88,6.88,6.88,0,1,0,2.22-12.89Z" transform="translate(-0.48 -0.98)"/>
  </g>
  <g id="whiteDashes">
    <circle class="cls-3" cx="256.02" cy="255.01" r="233.5"/>
  </g>
</svg>
