<?xml version="1.0" encoding="utf-8"?>
<!-- Generator: Adobe Illustrator 24.1.2, SVG Export Plug-In . SVG Version: 6.00 Build 0)  -->
<svg version="1.1" id="bootMug" xmlns="http://www.w3.org/2000/svg" xmlns:xlink="http://www.w3.org/1999/xlink" x="0px" y="0px"
	 viewBox="0 0 512 512" style="enable-background:new 0 0 512 512;" xml:space="preserve">
<style type="text/css">
	.st0{fill:#1A1A1A;}
	.st1{fill:#E6E6E6;}
	.st2{fill:none;stroke:#E6E6E6;stroke-width:6;stroke-linecap:round;stroke-miterlimit:10;stroke-dasharray:23.664,23.664;}

	#bootMug:hover .st2 { transform-origin: center center; animation: rotate 15s infinite linear }

      @keyframes rotate {
       0% {
       transform: rotate(0deg)
       }
       100% {
       transform: rotate(360deg)
  }
}
</style>
<circle id="BlackBG" class="st0" cx="256" cy="256.5" r="255.5"/>
<g id="bootMugOutline">
	<path class="st1" d="M272.1,241.2c-12.3,0-22.2,10-22.2,22.2c0,12.3,10,22.2,22.2,22.2c12.2,0,22.2-10,22.2-22.2
		C294.3,251.2,284.3,241.2,272.1,241.2z M272.1,273.1c-5.3,0-9.7-4.4-9.7-9.7c0-5.4,4.4-9.7,9.7-9.7c5.3,0,9.7,4.4,9.7,9.7
		C281.8,268.8,277.4,273.1,272.1,273.1z"/>
	<path class="st1" d="M271.6,330.1c-11.1,0-20.1,9-20.1,20.1c0,11.1,9,20.1,20.1,20.1c11.1,0,20.1-9,20.1-20.1
		C291.7,339.1,282.7,330.1,271.6,330.1z M271.6,357.8c-4.2,0-7.6-3.4-7.6-7.6s3.4-7.6,7.6-7.6c4.2,0,7.6,3.4,7.6,7.6
		C279.2,354.4,275.8,357.8,271.6,357.8z"/>
	<path class="st1" d="M341.5,195.1c0.1-2.1,0.1-4.3,0.1-6.3c10.8-5.9,18.2-17.4,18.2-30.5c0-19-15.4-34.5-34.3-34.7
		c-13.6-0.2-21.5-1.3-24.1-6.6c-5.4-13-18-21.3-32-21.3c-12.8,0-24.3,7-30.3,17.8c-2.8-0.7-5.7-1.1-8.7-1.1c-13.5,0-25.8,8-31.4,20
		c-0.7,0-1.3-0.1-2-0.1c-17,0-30.8,13.8-30.8,30.8c0,15.9,12.1,29.1,27.6,30.6c0.2,10.1,1.1,20.7,2.8,31.6c0.5,3.1,3.1,5.3,6.2,5.3
		c0.3,0,0.6,0,1-0.1c3.4-0.5,5.8-3.7,5.2-7.1c-1.6-10.2-2.5-20.1-2.7-29.5h10.2c2.7,0,4.9,2.2,4.9,4.9v17c0,11.1,9,20.1,20.1,20.1
		c11.1,0,20.1-9,20.1-20.1v-26.4c0-4.1,3.3-7.4,7.4-7.4c4.1,0,7.4,3.3,7.4,7.4v15.1c0,10.7,8.7,19.4,19.4,19.4
		c10.9,0,19.4-8.9,19.4-20.2V194c0-0.6,0.5-1.1,1.1-1.1h8.9c1.3,0,2.6-0.1,3.9-0.2c-0.9,34.6-11.1,68-20.8,88.5
		c-10.9,22.9-2.8,58.4,3.7,87c1.1,4.7,2.1,9.1,2.9,13.2c2.7,12.9,0.6,17.9-0.9,19.8c-0.6,0.7-2.2,2.7-7.9,2.7h-27.9
		c-2.2-4.5-6.3-10.1-14.2-10.1h-41.5c-7.9,0-12,5.6-14.2,10.1h-71c-9.5,0-15.8-5.6-16.1-14.3c-0.5-12.5,12.7-32.1,51-34.8
		c21.2-1.6,39.4-10.8,48.7-24.8c5.9-8.9,11.3-24.5,3.2-48c-1.1-3.3-4.7-5-8-3.9c-3.3,1.1-5,4.7-3.9,8c5.1,15,4.5,27.4-1.8,37
		c-7.1,10.8-21.7,17.9-39.1,19.2c-19.8,1.4-36.2,7.3-47.5,17c-10,8.5-15.5,19.8-15.1,30.8c0.6,15.6,12.3,26.4,28.6,26.4h75.2
		c2.6,0,5-1.6,5.9-4.1c2-5.3,3.2-6,4.2-6h41.5c1,0,2.2,0.7,4.2,6c0.9,2.5,3.3,4.1,5.9,4.1H306c7.7,0,13.7-2.5,17.7-7.4
		c5.2-6.5,6.4-16.4,3.4-30.3c-0.9-4.2-1.9-8.6-3-13.4c-0.8-3.6-1.7-7.4-2.5-11.4h16.6c36,0,65.3-29.3,65.3-65.4v-28.2
		C403.5,225.5,376,196.8,341.5,195.1L341.5,195.1z M316.3,180.4c-7.5,0-13.6,6.1-13.6,13.6v9.6c0,4.4-2.9,7.7-6.8,7.7
		c-3.8,0-6.8-3.1-6.8-6.9v-15.1c0-11-8.9-19.9-19.9-19.9c-11,0-19.9,8.9-19.9,19.9v26.4c0,4.2-3.4,7.6-7.6,7.6
		c-4.2,0-7.6-3.4-7.6-7.6v-17c0-9.6-7.8-17.5-17.5-17.5H197c-10.1,0-18.2-8.2-18.2-18.3c0-10.1,8.2-18.3,18.2-18.3
		c1.5,0,3,0.2,4.5,0.6c3.3,0.8,6.7-1.1,7.6-4.4c2.7-9.5,11.5-16.1,21.3-16.1c3.3,0,6.5,0.7,9.4,2.1c1.6,0.8,3.5,0.8,5.1,0.1
		c1.6-0.7,2.9-2.1,3.5-3.8c3-9,11.5-15.1,21-15.1c9,0,17.1,5.4,20.5,13.8c0,0.1,0.1,0.2,0.1,0.3c6.4,13.4,23.1,13.6,35.3,13.8
		c12.1,0.1,21.9,10.1,21.9,22.2c0,12.2-9.9,22.2-22.2,22.2L316.3,180.4L316.3,180.4z M319.5,286.6c7.5-15.7,13.3-34,17.1-52.7h1.5
		c14.6,0,26.5,11.9,26.5,26.5v28.2c0,14.6-11.9,26.5-26.5,26.5h-22.6C315,304.2,315.9,294.2,319.5,286.6z M391,288.6
		c0,29.1-23.7,52.8-52.8,52.8H319c-0.9-4.6-1.6-9.2-2.2-13.8h21.4c21.5,0,39-17.5,39-39.1v-28.2c0-21.3-17.1-38.7-38.3-39
		c0.7-4.6,1.3-9.2,1.7-13.7c28,1.3,50.3,24.5,50.3,52.8L391,288.6L391,288.6z"/>
	<path class="st1" d="M248,301.1L248,301.1c0,3.5,2.8,6.3,6.3,6.3c3.5,0,6.3-2.8,6.3-6.3c0-3.5-2.8-6.3-6.3-6.3
		C250.8,294.8,248,297.6,248,301.1L248,301.1z"/>
	<path class="st1" d="M167.8,377.9L167.8,377.9c0,3.5,2.8,6.3,6.3,6.3s6.3-2.8,6.3-6.3s-2.8-6.3-6.3-6.3
		C170.6,371.6,167.8,374.4,167.8,377.9L167.8,377.9z"/>
	<path class="st1" d="M218.4,364L218.4,364c0,3.5,2.8,6.3,6.3,6.3s6.3-2.8,6.3-6.3c0-3.5-2.8-6.3-6.3-6.3S218.4,360.5,218.4,364
		L218.4,364z"/>
	<path class="st1" d="M214.2,252.3c0-3.5-2.8-6.3-6.3-6.3s-6.3,2.8-6.3,6.3v0c0,3.5,2.8,6.3,6.3,6.3S214.2,255.8,214.2,252.3z"/>
</g>
<g id="whiteDashes">
	<circle class="st2" cx="256.5" cy="256" r="233.5"/>
</g>
</svg>
