<svg id="beerTap" xmlns="http://www.w3.org/2000/svg" width="511.03" height="511.03" viewBox="0 0 511.03 511.03">
  <defs>
    <style>
      .cls-1 {
        fill: #1a1a1a;
      }

      .cls-2 {
        fill: #e6e6e6;
      }

      .cls-3 {
        fill: none;
        stroke: #e6e6e6;
        stroke-linecap: round;
        stroke-miterlimit: 10;
        stroke-width: 6px;
        stroke-dasharray: 23.66 23.66;
      }

      #beerTap:hover .cls-3 { transform-origin: center center; animation: rotate 15s infinite linear }

      @keyframes rotate {
       0% {
       transform: rotate(0deg)
       }
       100% {
       transform: rotate(360deg)
  }
}
    </style>
  </defs>
  <circle id="BlackBG" class="cls-1" cx="255.52" cy="255.52" r="255.52"/>
  <g id="beerTapOutline">
    <path class="cls-2" d="M377.34,256.51h28.37a6.09,6.09,0,0,0,6.09-6.09V208.9a33.61,33.61,0,0,0-33.57-33.57H372.5v-3a11.48,11.48,0,0,0-5-9.49l3.46-39.6a17.52,17.52,0,0,0-4.7-13.48,19.95,19.95,0,0,0-29.41,0,17.56,17.56,0,0,0-4.7,13.49l3.48,39.59a11.47,11.47,0,0,0-5,9.49v3H312.33A20.31,20.31,0,0,0,293,161.13h-8.11V129.07a28.88,28.88,0,0,0-57.76,0v32.06H219a20.31,20.31,0,0,0-19.34,14.2H181.41v-3a11.48,11.48,0,0,0-5-9.49l3.46-39.58a17.5,17.5,0,0,0-4.68-13.48,19.95,19.95,0,0,0-29.43,0,17.56,17.56,0,0,0-4.7,13.49l3.47,39.59a11.49,11.49,0,0,0-5,9.49v3h-5.71A33.61,33.61,0,0,0,100.2,208.9v41.52a6.09,6.09,0,0,0,6.09,6.09h28.36a6.09,6.09,0,0,0,6.08-6.09V220.71a4.85,4.85,0,0,1,4.84-4.85h54.09A20.31,20.31,0,0,0,219,230.06h8.12v138h-105a21.89,21.89,0,0,0-21.87,21.87v15.78a6.08,6.08,0,0,0,6.09,6.09H228.63a6.09,6.09,0,1,0,0-12.17H112.37v-9.7a9.71,9.71,0,0,1,9.7-9.7H389.93a9.71,9.71,0,0,1,9.7,9.7v9.7H283.3a6.09,6.09,0,1,0,0,12.17H405.71a6.08,6.08,0,0,0,6.09-6.09V389.93a21.89,21.89,0,0,0-21.87-21.87h-105v-138H293a20.31,20.31,0,0,0,19.33-14.2h54.09a4.85,4.85,0,0,1,4.83,4.85v29.71a6.09,6.09,0,0,0,6.09,6.09ZM139.48,204.82a17,17,0,0,0-10.92,15.89v23.62H112.37V208.9a21.42,21.42,0,0,1,21.4-21.4h5.71Zm15.24-86.88a7.78,7.78,0,0,1,11.47,0,5.45,5.45,0,0,1,1.54,4.19l-3.38,38.66h-7.79l-3.4-38.66A5.53,5.53,0,0,1,154.72,117.94Zm14.52,85.75H151.65V173h17.59Zm29.48,0H181.41V187.5h17.31v16.19Zm28.4,14.2H219a8.12,8.12,0,0,1-8.11-8.11V181.41A8.12,8.12,0,0,1,219,173.3h8.12Zm45.59,150.17H239.29V344.35h33.42Zm0-35.88H239.29V315.69h33.42Zm0-28.66H239.29V279.81h33.42Zm0-35.88H239.29v-16.5h33.42Zm0-28.67H239.29V129.07a16.71,16.71,0,0,1,33.42,0Zm28.38-29.19a8.11,8.11,0,0,1-8.09,8.11h-8.12V173.3H293a8.11,8.11,0,0,1,8.09,8.11Zm29.48-6.09H313.26V187.5h17.31Zm15.24-85.75a7.77,7.77,0,0,1,11.46,0,5.55,5.55,0,0,1,1.55,4.2l-3.38,38.66h-7.79l-3.39-38.66a5.49,5.49,0,0,1,1.55-4.2Zm14.52,85.75H342.74V173h17.59ZM372.5,187.5h5.73a21.42,21.42,0,0,1,21.4,21.4v35.43H383.42V220.71a17,17,0,0,0-10.92-15.89Z" transform="translate(-0.48 -0.98)"/>
    <path class="cls-2" d="M256,399.63a6.09,6.09,0,0,0,0,12.17h0a6.09,6.09,0,1,0,0-12.17Z" transform="translate(-0.48 -0.98)"/>
  </g>
  <g id="whiteDashes">
    <circle class="cls-3" cx="256.02" cy="255.01" r="233.5"/>
  </g>
</svg>
