<svg id="hops" xmlns="http://www.w3.org/2000/svg" width="511.03" height="511.03" viewBox="0 0 511.03 511.03">
  <defs>
    <style>
      .cls-1 {
        fill: #1a1a1a;
      }

      .cls-2 {
        fill: #e6e6e6;
      }

      .cls-3 {
        fill: none;
        stroke: #e6e6e6;
        stroke-linecap: round;
        stroke-miterlimit: 10;
        stroke-width: 6px;
        stroke-dasharray: 23.66 23.66;
      }

      #hops:hover .cls-3 { transform-origin: center center; animation: rotate 15s infinite linear }

      @keyframes rotate {
       0% {
       transform: rotate(0deg)
       }
       100% {
       transform: rotate(360deg)
  }
}
    </style>
  </defs>
  <circle id="BlackBG" class="cls-1" cx="255.52" cy="255.52" r="255.52"/>
  <g id="hopsOutline">
    <path class="cls-2" d="M204.1,165.81a6.07,6.07,0,1,0,6.11,10.5C229.53,165.06,249,163,267.92,170.2a6.08,6.08,0,1,0,4.31-11.36c-22.25-8.45-45.81-6-68.13,7Z" transform="translate(-0.99 -0.48)"/>
    <path class="cls-2" d="M164.51,211.26a6.08,6.08,0,0,0-8.32,2.15c-13.1,22.21-15.53,45.65-7,67.79a6.07,6.07,0,0,0,5.67,3.9,5.93,5.93,0,0,0,2.18-.41,6.07,6.07,0,0,0,3.5-7.85c-7.24-18.82-5.17-38.08,6.14-57.25a6.09,6.09,0,0,0-2.15-8.33Z" transform="translate(-0.99 -0.48)"/>
    <path class="cls-2" d="M402.17,275.85C386.55,255.72,368.76,244.06,349,241l21.54-10.9a6.07,6.07,0,0,0,2.06-9.15c-17.3-22.32-36.92-35.94-58.48-40.68l15.64-11.05a6.09,6.09,0,0,0,.78-9.28c-16.41-16.29-34.51-27.55-53.79-33.47A6.08,6.08,0,0,0,273.22,138c15.36,4.72,30,13.28,43.51,25.48l-44.91,31.76c-24.95,17.62-62,15.25-82.72-5.29a6.08,6.08,0,0,0-10.36,4.32,6,6,0,0,0,1.8,4.3c20.65,20.52,23,57.34,5.31,82.09l-16,22.3-.12.16L153.86,325.4c-39.28-42.9-40.18-95-2-140.51a6.09,6.09,0,0,0-.31-8.16c-13.08-13.34-26.07-28.18-28.79-49.88L121.42,116l22-2.72,1.37,10.88c1.85,14.71,11.83,26.51,22.35,37.08a6.08,6.08,0,0,0,8.19.39C188.1,151,201.7,143.3,215.71,138.73a6.07,6.07,0,0,0-3.77-11.55,133.5,133.5,0,0,0-40,21.57c-7.49-8-13.93-16.6-15.12-26.11l-2.12-16.9a6.07,6.07,0,0,0-6.78-5.27l-34,4.21a6.07,6.07,0,0,0-5.28,6.79l2.12,16.89c2.91,23.25,15.22,39.11,28.4,53-39.95,51.07-35.89,111.13,11.14,157.86a6.08,6.08,0,0,0,4.28,1.76l.51,0a6.09,6.09,0,0,0,4.43-2.52l11.19-15.63c4.75,21.46,18.47,41,41,58.2a6.08,6.08,0,0,0,9.1-2.05l11-21.55c3.1,19.66,14.84,37.39,35.15,52.94a6.08,6.08,0,0,0,9.1-2.06l19.82-38.65c.62-1.23,1.19-2.48,1.72-3.75,9.29,8.35,20.82,13.89,32.33,15.31l41.27,5.07a6.27,6.27,0,0,0,.74.05,6.09,6.09,0,0,0,6-6.83l-5.26-42.25c-1.37-10.94-6.85-21.92-15.16-30.86,1.25-.51,2.48-1.07,3.68-1.67L400.11,285a6.09,6.09,0,0,0,2.06-9.15ZM278.83,205.2l20.73-14.65c21.5.89,41.24,11.66,58.79,32.06L318.28,242.9A54.93,54.93,0,0,1,294,248.56a57.82,57.82,0,0,0-9.11-3.33l-.4-3.18c-1.38-11.1-6.24-22.16-13.9-31.83a70.36,70.36,0,0,0,8.25-5ZM233.77,326.87l-20.44,39.88c-20.56-17.44-31.41-37-32.33-58.39l14.73-20.59a70.46,70.46,0,0,0,5.16-8.37,70.6,70.6,0,0,0,29,13.45c2,.39,4,.66,6.06.91a52.37,52.37,0,0,0,3.46,9.54,53.79,53.79,0,0,1-5.68,23.57Zm8.07-44.64-6-.73c-10.57-1.3-21.11-6.15-30.06-13.76a81.34,81.34,0,0,0-1.32-53.89,81.41,81.41,0,0,0,29,5.26,82.5,82.5,0,0,0,25.36-4c7.57,8.53,12.36,18.5,13.59,28.41l5.37,43.11L242,282.25l-.12,0Zm47,70.5c0,.11,0,.21-.05.32a41.55,41.55,0,0,1-3.79,11l-16.39,32c-21.54-18.65-29.34-39.68-23.84-64.1a63.22,63.22,0,0,0,4.92-13.54c9.57,10.38,22.71,17.76,36.61,19.46l3,.36a46.77,46.77,0,0,1-.42,14.49Zm-1.06-26.92C272.56,324,258.07,313,251,299.35a2.64,2.64,0,0,0-.18-.38c-.59-1.17-1.12-2.37-1.59-3.58l34.78,4.28a6,6,0,0,0,.74.05,6.09,6.09,0,0,0,6-6.83l-4.28-34.31c15.64,6.22,28.6,21.31,30.53,36.85l4.3,34.51Zm72.81,12.91,4.3,34.52-33.53-4.13c-11-1.35-22.1-7.57-30.14-16.78a59.18,59.18,0,0,0,.39-12.57l26,3.19a6.27,6.27,0,0,0,.74.05,6.09,6.09,0,0,0,6-6.83l-3.2-25.73c1.51.11,3,.17,4.51.17a60.55,60.55,0,0,0,8.1-.55c9.3,7.73,15.53,18.29,16.83,28.66Zm-4.91-44.88a45.48,45.48,0,0,1-26.07,4.24l-.52-4.16c-1.63-13.12-9-25.73-19.5-35.06a64,64,0,0,0,13.68-4.9c24.59-5.47,45.77,2.25,64.54,23.62Z" transform="translate(-0.99 -0.48)"/>
    <path class="cls-2" d="M243.19,133.91h0a6.08,6.08,0,1,0-6.12-6.08A6.07,6.07,0,0,0,243.23,133.91Z" transform="translate(-0.99 -0.48)"/>
  </g>
  <g id="whiteDashes">
    <circle class="cls-3" cx="255.52" cy="255.52" r="233.5"/>
  </g>
</svg>
