<svg id="bar" xmlns="http://www.w3.org/2000/svg" width="511.03" height="511.03" viewBox="0 0 511.03 511.03">
  <defs>
    <style>
      .cls-1 {
        fill: #1a1a1a;
      }

      .cls-2 {
        fill: #e6e6e6;
      }

      .cls-3 {
        fill: none;
        stroke: #e6e6e6;
        stroke-linecap: round;
        stroke-miterlimit: 10;
        stroke-width: 6px;
        stroke-dasharray: 23.66 23.66;
      }

      #bar:hover .cls-3 { transform-origin: center center; animation: rotate 15s infinite linear }

      @keyframes rotate {
       0% {
       transform: rotate(0deg)
       }
       100% {
       transform: rotate(360deg)
  }
}
    </style>
  </defs>
  <circle id="BlackBG" class="cls-1" cx="255.52" cy="255.52" r="255.52"/>
  <g id="barOutline">
    <path class="cls-2" d="M415,250a19.63,19.63,0,0,0-19.61-19.59h-3.24V165.6c0-13.59-4.92-18.55-8.5-22.18-1.83-1.84-2.81-2.82-3.24-4.94V108.11A11.13,11.13,0,0,0,369.28,97h-17a11.12,11.12,0,0,0-11.1,11.11v30.37c-.44,2.11-1.41,3.1-3.24,4.94-3.59,3.63-8.5,8.59-8.5,22.18v64.78H296.37V213.53A24.94,24.94,0,0,0,315,189.43v-15.5a10.88,10.88,0,0,0-10.86-10.86H276.13a10.88,10.88,0,0,0-10.86,10.86v15.5A24.93,24.93,0,0,0,284,213.53v16.85h-55.9V213.53a24.92,24.92,0,0,0,18.68-24.1v-15.5a10.89,10.89,0,0,0-10.88-10.86h-28A10.89,10.89,0,0,0,197,173.93v15.5a24.93,24.93,0,0,0,18.68,24.1v16.85H182.56V165.6c0-13.58-4.92-18.55-8.51-22.18-1.82-1.84-2.8-2.82-3.24-4.94V108.11A11.13,11.13,0,0,0,159.69,97h-17a11.13,11.13,0,0,0-11.12,11.11v30.37c-.44,2.12-1.42,3.1-3.24,4.94-3.59,3.63-8.51,8.6-8.51,22.18v64.78h-3.24a19.59,19.59,0,0,0-6.21,38.17V398.7a16.32,16.32,0,0,0,16.3,16.3H385.3a16.32,16.32,0,0,0,16.3-16.3V268.55A19.62,19.62,0,0,0,415,250ZM353.61,109.42H368V127.3H353.61ZM341.87,165.6c0-8.48,2.16-10.67,4.91-13.44,2.55-2.57,5.72-5.78,6.75-12.12,0-.11,0-.21,0-.32H368l0,.32c1,6.34,4.21,9.55,6.76,12.12,2.74,2.77,4.91,5,4.91,13.44v4H341.87Zm0,16.37h37.86v18.62H341.87Zm0,31h37.86v17.37H341.87ZM277.7,189.43V175.5h24.91v13.93a12.46,12.46,0,1,1-24.91,0Zm-68.33,0V175.5h24.94v13.93a12.47,12.47,0,0,1-24.94,0Zm-65.37-80h14.39V127.3H144ZM132.26,165.6c0-8.48,2.16-10.67,4.91-13.44,2.54-2.57,5.72-5.78,6.75-12.12,0-.11,0-.21,0-.32h14.47c0,.11,0,.21,0,.32,1,6.34,4.2,9.55,6.75,12.12,2.75,2.77,4.91,5,4.91,13.44v4H132.26Zm0,16.37h37.87v18.62H132.26Zm0,31h37.87v17.37H132.26ZM216.1,402.58H171.67v-6.45a6.46,6.46,0,0,1,6.45-6.43h31.53a6.45,6.45,0,0,1,6.45,6.43v6.45Zm124.21,0H295.9v-6.45a6.44,6.44,0,0,1,6.43-6.43h31.55a6.44,6.44,0,0,1,6.43,6.43v6.45Zm55.08-145.44H283.88a6.21,6.21,0,0,0,0,12.42h105.3V398.7a3.88,3.88,0,0,1-3.88,3.88H352.73v-6.45a18.88,18.88,0,0,0-18.85-18.85h-9.57V364h10.34a6.21,6.21,0,0,0,0-12.42H324.31V325.92h15.92a20.19,20.19,0,1,0,0-40.37H296a20.19,20.19,0,1,0,0,40.37h15.92v25.67H301.55a6.21,6.21,0,0,0,0,12.42h10.34v13.27h-9.56a18.87,18.87,0,0,0-18.85,18.85v6.45h-55v-6.45a18.88,18.88,0,0,0-18.87-18.85h-9.56V364h10.34a6.21,6.21,0,0,0,0-12.42H200.09V325.92H216a20.19,20.19,0,0,0,0-40.37H171.75a20.19,20.19,0,0,0,0,40.37h15.92v25.67H177.35a6.21,6.21,0,0,0,0,12.42h10.32v13.27h-9.55a18.89,18.89,0,0,0-18.87,18.85v6.45H126.68a3.94,3.94,0,0,1-3.88-3.88V269.56H228.1a6.21,6.21,0,1,0,0-12.42H116.59a7.17,7.17,0,0,1,0-14.34h278.8a7.17,7.17,0,1,1,0,14.34ZM296,313.49A7.76,7.76,0,1,1,296,298h44.26a7.76,7.76,0,1,1,0,15.51Zm-124.22,0a7.76,7.76,0,0,1,0-15.51H216a7.76,7.76,0,0,1,0,15.51Z" transform="translate(-0.48 -0.98)"/>
    <path class="cls-2" d="M256,257.14a6.21,6.21,0,0,0,0,12.42h0a6.21,6.21,0,0,0,0-12.42Z" transform="translate(-0.48 -0.98)"/>
  </g>
  <g id="whiteDashes">
    <circle class="cls-3" cx="256.02" cy="255.01" r="233.5"/>
  </g>
</svg>
