<svg id="pub" xmlns="http://www.w3.org/2000/svg" width="511.03" height="511.03" viewBox="0 0 511.03 511.03">
  <defs>
    <style>
      .cls-1 {
        fill: #1a1a1a;
      }

      .cls-2 {
        fill: #e6e6e6;
      }

      .cls-3 {
        fill: none;
        stroke: #e6e6e6;
        stroke-linecap: round;
        stroke-miterlimit: 10;
        stroke-width: 6px;
        stroke-dasharray: 23.66 23.66;
      }

      #pub:hover .cls-3 { transform-origin: center center; animation: rotate 15s infinite linear }

      @keyframes rotate {
       0% {
       transform: rotate(0deg)
       }
       100% {
       transform: rotate(360deg)
  }
}
    </style>
  </defs>
  <circle id="BlackBG" class="cls-1" cx="255.52" cy="255.52" r="255.52"/>
  <g id="pubOutline">
    <path class="cls-2" d="M207.93,297.06a5.75,5.75,0,0,0-5.75,5.74v14.9a5.75,5.75,0,0,0,11.49,0V302.8A5.74,5.74,0,0,0,207.93,297.06Z" transform="translate(-0.48 -0.98)"/>
    <path class="cls-2" d="M303.05,292.61a5.72,5.72,0,0,0,4.06-1.68l11.21-11.22a5.74,5.74,0,0,0-8.12-8.12L299,282.81a5.74,5.74,0,0,0,4.06,9.8Z" transform="translate(-0.48 -0.98)"/>
    <path class="cls-2" d="M305.61,318.76a5.75,5.75,0,0,0,8.12,0l32.44-32.44a5.74,5.74,0,0,0-8.12-8.12l-32.44,32.44a5.75,5.75,0,0,0,0,8.12Z" transform="translate(-0.48 -0.98)"/>
    <path class="cls-2" d="M300.9,193.57h0c.13,0,13.36-.07,17-.07a19.13,19.13,0,0,0,11.67-34.31,17.19,17.19,0,0,0-14.19-26.91H300.9a5.74,5.74,0,0,0-5.74,5.74v49.8a5.75,5.75,0,0,0,5.74,5.75Zm5.74-49.81h8.73a5.72,5.72,0,1,1,0,11.43l-8.73,0Zm0,22.94h11.25a7.67,7.67,0,1,1,0,15.33l-11.25,0Z" transform="translate(-0.48 -0.98)"/>
    <path class="cls-2" d="M265.39,191.07C275.77,185.85,278,178,278,172.25V138a5.75,5.75,0,0,0-11.49,0v34.23c0,2.52-.71,5.78-6.25,8.57a12.25,12.25,0,0,1-5.59,1.26,11.08,11.08,0,0,1-6.12-1.73c-4.28-2.74-5.16-5.2-5.16-8V138a5.74,5.74,0,0,0-11.48,0V172.3c0,7.43,3.42,13.23,10.46,17.73a22.55,22.55,0,0,0,12.27,3.54,23.71,23.71,0,0,0,10.8-2.5Z" transform="translate(-0.48 -0.98)"/>
    <path class="cls-2" d="M194.56,132.28H180.7A5.81,5.81,0,0,0,175,138v49.8a5.75,5.75,0,1,0,11.49,0V171.9l8.12,0a19.8,19.8,0,1,0,0-39.59Zm0,28.11h0l-8.06,0c0-3,0-6.44,0-8.34,0-1.62,0-5.19,0-8.32h8.11a8.32,8.32,0,1,1,0,16.63Z" transform="translate(-0.48 -0.98)"/>
    <path class="cls-2" d="M382.43,216.84h3.84A16.75,16.75,0,0,0,403,200.11V125.73A16.74,16.74,0,0,0,386.27,109H125.73A16.74,16.74,0,0,0,109,125.73v74.38a16.74,16.74,0,0,0,16.73,16.73h3.83V362.22H119a10.05,10.05,0,0,0-10,10v20.67A10.06,10.06,0,0,0,119,403h273.9A10.07,10.07,0,0,0,403,392.94V372.27a10.07,10.07,0,0,0-10.06-10H382.43ZM370.94,333H274.2v-74.7h96.74Zm20.58,58.54h-271V373.7h271ZM225.3,362.22h-55V260.55a2.29,2.29,0,0,1,2.25-2.27h50.51a2.29,2.29,0,0,1,2.25,2.27Zm11.48,0V260.55a13.76,13.76,0,0,0-13.73-13.75H172.54a13.76,13.76,0,0,0-13.73,13.75V362.22H141V216.84h89.14a5.74,5.74,0,0,0,0-11.48H125.73a5.26,5.26,0,0,1-5.25-5.25V182.24H144.8a5.75,5.75,0,1,0,0-11.49H120.48V155.09H144.8a5.75,5.75,0,1,0,0-11.49H120.48V125.73a5.26,5.26,0,0,1,5.25-5.25H386.27a5.26,5.26,0,0,1,5.25,5.25V143.6H368.84a5.75,5.75,0,0,0,0,11.49h22.68v15.66H368.84a5.75,5.75,0,0,0,0,11.49h22.68v17.87a5.26,5.26,0,0,1-5.25,5.25H281.76a5.74,5.74,0,0,0,0,11.48h89.18v30H268.46a5.74,5.74,0,0,0-5.74,5.74v86.19a5.74,5.74,0,0,0,5.74,5.74H370.94v17.75Z" transform="translate(-0.48 -0.98)"/>
    <path class="cls-2" d="M256,205.36a5.74,5.74,0,1,0,0,11.48h0a5.74,5.74,0,1,0,0-11.48Z" transform="translate(-0.48 -0.98)"/>
  </g>
  <g id="whiteDashes">
    <circle class="cls-3" cx="256.02" cy="255.01" r="233.5"/>
  </g>
</svg>
