<svg id="beerCrate" xmlns="http://www.w3.org/2000/svg" width="511.03" height="511.03" viewBox="0 0 511.03 511.03">
  <defs>
    <style>
      .cls-1 {
        fill: #1a1a1a;
      }

      .cls-2 {
        fill: #e6e6e6;
      }

      .cls-3 {
        fill: none;
        stroke: #e6e6e6;
        stroke-linecap: round;
        stroke-miterlimit: 10;
        stroke-width: 6px;
        stroke-dasharray: 23.66 23.66;
      }

      #beerCrate:hover .cls-3 { transform-origin: center center; animation: rotate 15s infinite linear }

      @keyframes rotate {
       0% {
       transform: rotate(0deg)
       }
       100% {
       transform: rotate(360deg)
  }
}
    </style>
  </defs>
  <circle id="BlackBG" class="cls-1" cx="255.52" cy="255.52" r="255.52"/>
  <g id="beerCrateOutline">
    <path class="cls-2" d="M138.64,258.7a5.88,5.88,0,0,0-5.88,5.88h0a5.88,5.88,0,1,0,5.88-5.89Z" transform="translate(-0.48 -0.98)"/>
    <path class="cls-2" d="M138.64,340.79a5.88,5.88,0,0,0-5.88,5.88v0a5.88,5.88,0,1,0,5.88-5.92Z" transform="translate(-0.48 -0.98)"/>
    <path class="cls-2" d="M373.35,258.7a5.88,5.88,0,0,0-5.88,5.88h0a5.88,5.88,0,1,0,5.88-5.89Z" transform="translate(-0.48 -0.98)"/>
    <path class="cls-2" d="M373.35,340.79a5.88,5.88,0,0,0-5.88,5.88v0a5.88,5.88,0,1,0,5.88-5.92Z" transform="translate(-0.48 -0.98)"/>
    <path class="cls-2" d="M403.31,280.8V248.39A16.29,16.29,0,0,0,387,232.12H372c-2.23-6.45-4.74-12.56-7.19-18.5-6.57-15.91-12.76-30.94-12.76-50.53V139.24a12.22,12.22,0,0,0,6.32-10.68V117.65a12.23,12.23,0,0,0-12.21-12.2H300.91a12.22,12.22,0,0,0-12.2,12.2v10.9A12.22,12.22,0,0,0,295,139.24v23.85c0,19.59-6.2,34.62-12.76,50.53-2.45,5.94-5,12-7.19,18.5H236.91c-2.23-6.46-4.75-12.58-7.2-18.53-6.55-15.9-12.74-30.92-12.74-50.5V139.24a12.22,12.22,0,0,0,6.32-10.68V117.65a12.22,12.22,0,0,0-12.2-12.2H165.81a12.23,12.23,0,0,0-12.21,12.2v10.9a12.22,12.22,0,0,0,6.32,10.69v23.85c0,19.59-6.19,34.62-12.76,50.53-2.45,5.94-5,12-7.19,18.5h-15a16.28,16.28,0,0,0-16.25,16.27V280.8a16.27,16.27,0,0,0,10.37,15.14v19.4a16.28,16.28,0,0,0-10.37,15.15v32.4a16.28,16.28,0,0,0,10.37,15.16v22.61a5.89,5.89,0,0,0,5.88,5.89H387a5.89,5.89,0,0,0,5.88-5.89V378.05a16.28,16.28,0,0,0,10.39-15.16v-32.4a16.28,16.28,0,0,0-10.39-15.15v-19.4a16.28,16.28,0,0,0,10.39-15.14ZM300.47,117.65a.46.46,0,0,1,.44-.43h45.28a.47.47,0,0,1,.45.43v10.9a.47.47,0,0,1-.45.44H300.91a.47.47,0,0,1-.44-.44Zm40,50.2H306.68c.07-1.56.11-3.14.11-4.76V140.75h33.52v22.34C340.31,164.71,340.36,166.29,340.43,167.85Zm-47.29,50.26c4.93-11.94,10-24.18,12.31-38.5h36.21C344,193.93,349,206.17,354,218.11c1.88,4.56,3.8,9.22,5.58,14h-72c1.78-4.79,3.7-9.45,5.58-14ZM165.36,117.65a.45.45,0,0,1,.45-.43h45.28a.46.46,0,0,1,.44.43v10.9a.47.47,0,0,1-.44.44H165.81a.46.46,0,0,1-.45-.44Zm40,50.2H171.57c.07-1.56.12-3.14.12-4.76V140.75h33.52v22.34C205.21,164.71,205.25,166.29,205.32,167.85ZM158,218.11c4.93-11.94,10-24.18,12.31-38.5h36.21c2.34,14.31,7.37,26.54,12.29,38.46,1.88,4.58,3.81,9.25,5.58,14.06h-72C154.23,227.33,156.15,222.67,158,218.11ZM381.16,394.78H130.82V379.16H381.16Zm10.39-31.89A4.58,4.58,0,0,1,387,367.4H124.94a4.57,4.57,0,0,1-4.49-4.51v-32.4a4.55,4.55,0,0,1,4.49-4.49H387a4.5,4.5,0,0,1,4.51,4.49Zm0-82.09a4.5,4.5,0,0,1-4.51,4.48H285.65a5.88,5.88,0,0,0,0,11.76h95.51v17.2H130.82V297h102a5.88,5.88,0,0,0,0-11.76H124.94a4.55,4.55,0,0,1-4.49-4.48V248.39a4.5,4.5,0,0,1,4.49-4.5H387a4.51,4.51,0,0,1,4.51,4.5V280.8Z" transform="translate(-0.48 -0.98)"/>
    <path class="cls-2" d="M259.25,285.28a5.88,5.88,0,1,0,0,11.76h0a5.88,5.88,0,0,0,0-11.76Z" transform="translate(-0.48 -0.98)"/>
  </g>
  <g id="whiteDashes">
    <circle class="cls-3" cx="256.02" cy="255.01" r="233.5"/>
  </g>
</svg>
