<svg id="brewery" xmlns="http://www.w3.org/2000/svg" width="511.03" height="511.03" viewBox="0 0 511.03 511.03">
  <defs>
    <style>
      .cls-1 {
        fill: #1a1a1a;
      }

      .cls-2 {
        fill: #e6e6e6;
      }

      .cls-3 {
        fill: none;
        stroke: #e6e6e6;
        stroke-linecap: round;
        stroke-miterlimit: 10;
        stroke-width: 6px;
        stroke-dasharray: 23.66 23.66;
      }

      #brewery:hover .cls-3 { transform-origin: center center; animation: rotate 15s infinite linear }

      @keyframes rotate {
       0% {
       transform: rotate(0deg)
       }
       100% {
       transform: rotate(360deg)
  }
}
    </style>
  </defs>
  <circle id="BlackBG" class="cls-1" cx="255.52" cy="255.52" r="255.52"/>
  <g id="breweryOutline">
    <path class="cls-2" d="M286.49,292.21A22.81,22.81,0,1,0,263.7,269.4,22.83,22.83,0,0,0,286.49,292.21Zm0-32.66a9.86,9.86,0,1,1-9.85,9.85A9.86,9.86,0,0,1,286.49,259.55Z" transform="translate(-0.48 -0.98)"/>
    <path class="cls-2" d="M348.69,246.6a22.81,22.81,0,1,0,22.8,22.8A22.82,22.82,0,0,0,348.69,246.6Zm0,32.67a9.87,9.87,0,1,1,9.86-9.87A9.87,9.87,0,0,1,348.69,279.27Z" transform="translate(-0.48 -0.98)"/>
    <path class="cls-2" d="M352.41,311.7H270.17a6.47,6.47,0,0,0,0,12.94h82.24a6.47,6.47,0,1,0,0-12.94Z" transform="translate(-0.48 -0.98)"/>
    <path class="cls-2" d="M352.41,338H270.17a6.47,6.47,0,1,0,0,12.94h82.24a6.47,6.47,0,1,0,0-12.94Z" transform="translate(-0.48 -0.98)"/>
    <path class="cls-2" d="M172.89,210a6.47,6.47,0,0,0-8.48,0c-10.21,8.85-16.53,20.41-18.15,32.75a50,50,0,0,0-17.47-2.19,6.46,6.46,0,0,0-6.13,5.86,48.83,48.83,0,0,0,3.57,23.77,6.46,6.46,0,0,0-3.57,5.19c-1.29,13.68,2.8,26.51,11.52,36.12a45,45,0,0,0,28,14.37v10.37a6.47,6.47,0,1,0,12.94,0V325.89a45.17,45.17,0,0,0,28.76-15.16c8.19-9.47,12-22,10.77-35.33a6.45,6.45,0,0,0-3.57-5.19,48.71,48.71,0,0,0,3.57-23.77,6.46,6.46,0,0,0-6.13-5.86,50,50,0,0,0-17.47,2.19c-1.62-12.33-8-23.9-18.16-32.75ZM162.17,312.81a32.17,32.17,0,0,1-18.41-10,32.9,32.9,0,0,1-8.32-20.19c12.18,1.33,22.25,8.58,26.74,19.56v10.61Zm0-32.25A45.5,45.5,0,0,0,141,270.39a33.45,33.45,0,0,1-5.54-16.71c12.19,1.35,22.25,8.62,26.72,19.61Zm6.48-22a43.59,43.59,0,0,0-9.86-9.6,38,38,0,0,1,9.86-25,38.1,38.1,0,0,1,9.87,25A43.84,43.84,0,0,0,168.65,258.56Zm25.44,43.71a32.22,32.22,0,0,1-19,10.54V302.2c4.5-11,14.57-18.22,26.74-19.56a32.84,32.84,0,0,1-7.77,19.63Zm2.23-31.88a45.54,45.54,0,0,0-21.2,10.18v-7.33c4.5-11,14.57-18.21,26.74-19.56A33.45,33.45,0,0,1,196.32,270.39Z" transform="translate(-0.48 -0.98)"/>
    <path class="cls-2" d="M389.15,214.72V199.61a16.75,16.75,0,0,0-16.72-16.73H359.51V108.37a18,18,0,0,0-18-18H180.2a18,18,0,0,0-18,18V131.6c-17.23.65-33.2,3.89-45.5,9.29-21.76,9.55-26.32,23-26.32,32.54v205.3a6.47,6.47,0,0,0,6.47,6.48h10.51v22.4a14.06,14.06,0,0,0,14,14h16.25a14,14,0,0,0,14-14v-22.4h34v22.4a14.06,14.06,0,0,0,14,14h16.23a14.06,14.06,0,0,0,14-14v-22.4h23.36v22.4a14.06,14.06,0,0,0,14,14h16.23a14.06,14.06,0,0,0,14.05-14v-22.4H358v22.4a14.06,14.06,0,0,0,14,14h16.25a14,14,0,0,0,14-14v-22.4h12.86a6.48,6.48,0,0,0,6.47-6.48V253.15a39,39,0,0,0-32.5-38.43Zm-16.72-18.9a3.84,3.84,0,0,1,3.78,3.79v14.57H329.87V199.61a3.79,3.79,0,0,1,3.78-3.79ZM138.7,407.61a1.11,1.11,0,0,1-1.09,1.1H121.36a1.13,1.13,0,0,1-1.09-1.1v-22.4H138.7Zm78.34,0a1.14,1.14,0,0,1-1.11,1.1H199.7a1.14,1.14,0,0,1-1.11-1.1v-22.4H217Zm17-228H197.68a6.47,6.47,0,0,0,0,12.94H234V372.26H103.29V192.54h36.27a6.47,6.47,0,0,0,0-12.94H103.29v-6.17c0-18.85,33.68-29,65.37-29s65.36,10.17,65.36,29Zm-13.38-38.71c-12.3-5.41-28.28-8.64-45.52-9.29V108.37a5.09,5.09,0,0,1,5.08-5.08H341.48a5.09,5.09,0,0,1,5.09,5.08v74.51H333.65a16.75,16.75,0,0,0-16.72,16.73v14.56H247V173.43C247,163.86,242.4,150.44,220.64,140.89Zm64.08,266.72a1.14,1.14,0,0,1-1.11,1.1H267.38a1.13,1.13,0,0,1-1.1-1.1v-22.4h18.44Zm104.66,0a1.11,1.11,0,0,1-1.09,1.1H372a1.11,1.11,0,0,1-1.09-1.1v-22.4h18.43Zm19.33-35.35H247V227.12H382.68a26.06,26.06,0,0,1,26,26Z" transform="translate(-0.48 -0.98)"/>
    <path class="cls-2" d="M168.63,192.54h0a6.47,6.47,0,1,0-6.49-6.47A6.47,6.47,0,0,0,168.65,192.54Z" transform="translate(-0.48 -0.98)"/>
  </g>
  <g id="whiteDashes">
    <circle class="cls-3" cx="256.02" cy="255.01" r="233.5"/>
  </g>
</svg>
