<svg id="Capa_1" data-name="Capa 1" xmlns="http://www.w3.org/2000/svg" width="384" height="384" viewBox="0 0 384 384">
  <path d="M64,0V80H0V224H64V384H288l96-96V0ZM16,208V96H256V208ZM288,361.38V288h73.38ZM368,272H272v96H80V224H272V80H80V16H368Z" fill="#fff"/>
  <path d="M90.85,130.86a18.24,18.24,0,0,0-3.17-6.57,16.09,16.09,0,0,0-5.81-4.66A20,20,0,0,0,73,117.86H48.8V186.4H62.62V159H70a30.75,30.75,0,0,0,8.92-1.26A18.28,18.28,0,0,0,85.81,154a16.47,16.47,0,0,0,4.41-6.41,24.55,24.55,0,0,0,1.59-9.22A30.74,30.74,0,0,0,90.85,130.86ZM75.44,146.38a9.08,9.08,0,0,1-6.67,2.52H62.62V128.05h5.76c3.46,0,5.92.91,7.4,2.69s2.2,4.41,2.2,7.87S77.14,144.72,75.44,146.38Z" fill="#fff"/>
  <path d="M153.36,137.44a29.47,29.47,0,0,0-3.31-10.51,16.6,16.6,0,0,0-6.87-6.72c-3-1.57-6.81-2.37-11.63-2.37H108.9v68.54h21.82a26.9,26.9,0,0,0,11.42-2.11,16.5,16.5,0,0,0,7.2-6.43,30,30,0,0,0,3.8-11,98.39,98.39,0,0,0,1.08-15.7A98.52,98.52,0,0,0,153.36,137.44ZM140,163.26a23.19,23.19,0,0,1-1.73,7.6,8.54,8.54,0,0,1-3.5,4.13,11.88,11.88,0,0,1-5.86,1.25h-6.14V128h5.84a11.59,11.59,0,0,1,6.29,1.51,9,9,0,0,1,3.57,4.4,25.48,25.48,0,0,1,1.58,7.34c.24,3,.38,6.38.38,10.29Q140.38,158.58,140,163.26Z" fill="#fff"/>
  <polygon points="211.23 129.18 211.23 117.86 172.93 117.86 172.93 186.4 186.75 186.4 186.75 156.64 209.79 156.64 209.79 145.31 186.75 145.31 186.75 129.18 211.23 129.18" fill="#fff"/>
</svg>
