<svg id="Capa_1" data-name="Capa 1" xmlns="http://www.w3.org/2000/svg" width="384" height="384" viewBox="0 0 384 384">
  <path d="M64,0V80H0V224H64V384H288l96-96V0ZM16,208V96H256V208ZM288,361.38V288h73.38ZM368,272H272v96H80V224H272V80H80V16H368Z" fill="#fff"/>
  <path d="M90.85,130.86a18.24,18.24,0,0,0-3.17-6.57,16.09,16.09,0,0,0-5.81-4.66A20,20,0,0,0,73,117.86H48.8V186.4H62.62V159H70a30.75,30.75,0,0,0,8.92-1.26A18.28,18.28,0,0,0,85.81,154a16.47,16.47,0,0,0,4.41-6.41,24.55,24.55,0,0,0,1.59-9.22A30.74,30.74,0,0,0,90.85,130.86ZM75.44,146.38a9.08,9.08,0,0,1-6.67,2.52H62.62V128.05h5.76c3.46,0,5.92.91,7.4,2.69s2.2,4.41,2.2,7.87S77.14,144.72,75.44,146.38Z" fill="#fff"/>
  <polygon points="141.07 117.86 141.07 164.82 140.86 164.82 124.16 117.86 108.22 117.86 108.22 186.4 120.9 186.4 120.9 138.4 121.1 138.4 138 186.4 153.74 186.4 153.74 117.86 141.07 117.86" fill="#fff"/>
  <path d="M195,149.44v10.18h9.1v7a12.54,12.54,0,0,1-.86,4.87,11.45,11.45,0,0,1-2.16,3.41,9.38,9.38,0,0,1-2.78,2,7.11,7.11,0,0,1-2.76.67,6.53,6.53,0,0,1-4.84-1.87,12.23,12.23,0,0,1-2.88-5.37,42.84,42.84,0,0,1-1.4-8.5c-.25-3.33-.38-7-.38-11.14,0-8.56.74-14.72,2.21-18.41s3.87-5.59,7.2-5.59a5.87,5.87,0,0,1,3.61,1.11,9.22,9.22,0,0,1,2.44,2.78,12.82,12.82,0,0,1,1.39,3.7,18.52,18.52,0,0,1,.43,3.92h13.22q0-10.49-5-16.08t-16.32-5.63a24.67,24.67,0,0,0-11,2.2,17.42,17.42,0,0,0-7.08,6.58,30.46,30.46,0,0,0-3.8,10.91,92.47,92.47,0,0,0-1.1,15.15A141.14,141.14,0,0,0,173,167a34.81,34.81,0,0,0,3,11.38,15,15,0,0,0,6.24,6.81,21.3,21.3,0,0,0,10.34,2.23,19.3,19.3,0,0,0,8.4-1.68,14.52,14.52,0,0,0,6-5.72h.19v6.34h10.19v-37Z" fill="#fff"/>
</svg>
