<svg id="Capa_1" data-name="Capa 1" xmlns="http://www.w3.org/2000/svg" width="384" height="384" viewBox="0 0 384 384">
  <path d="M64,0V80H0V224H64V384H288l96-96V0ZM16,208V96H256V208ZM288,361.38V288h73.38ZM368,272H272v96H80V224H272V80H80V16H368Z" fill="#fff"/>
  <path d="M91.12,161a13.62,13.62,0,0,0-2.06-4.76,17.66,17.66,0,0,0-4-4,31.93,31.93,0,0,0-6.43-3.61L68,144c-2.92-1.2-4.84-2.53-5.74-4a9.73,9.73,0,0,1-1.34-5.32,13.28,13.28,0,0,1,.33-3,6.39,6.39,0,0,1,1.28-2.58A6.6,6.6,0,0,1,65,127.33a9.79,9.79,0,0,1,3.82-.67c2.69,0,4.61.89,5.76,2.64s1.73,4.28,1.73,7.55H89.52v-1.92a20.17,20.17,0,0,0-1.6-8.4,15.39,15.39,0,0,0-4.4-5.75,17.58,17.58,0,0,0-6.74-3.26,33.71,33.71,0,0,0-8.48-1c-6.59,0-11.79,1.67-15.56,5s-5.67,8.37-5.67,15.16a24.07,24.07,0,0,0,1,7.45,15.47,15.47,0,0,0,3.31,5.67,21,21,0,0,0,5.64,4.27,49.87,49.87,0,0,0,8,3.37,55,55,0,0,1,5.8,2.26,14.51,14.51,0,0,1,3.79,2.45,7.43,7.43,0,0,1,2.06,3,11.31,11.31,0,0,1,.63,4c0,2.86-.85,5-2.55,6.38a8.73,8.73,0,0,1-5.69,2.07,11.53,11.53,0,0,1-4.47-.77,7,7,0,0,1-2.83-2.13,7.7,7.7,0,0,1-1.44-3.31A22.14,22.14,0,0,1,59.9,167h0v-2H46.08v2.78q0,9.51,5,14.59t16.75,5.09q11.23,0,17.52-5t6.31-15.79A26.61,26.61,0,0,0,91.12,161Z" fill="#fff"/>
  <polygon points="138.67 117.86 128.5 168.54 128.19 168.54 118.54 117.86 103.76 117.86 119.49 186.4 137.25 186.4 152.99 117.86 138.67 117.86" fill="#fff"/>
  <path d="M189.76,149.44v10.18h9.1v7a12.54,12.54,0,0,1-.86,4.87,11.45,11.45,0,0,1-2.16,3.41,9.38,9.38,0,0,1-2.78,2,7.11,7.11,0,0,1-2.76.67,6.53,6.53,0,0,1-4.84-1.87,12.23,12.23,0,0,1-2.88-5.37,42.84,42.84,0,0,1-1.4-8.5c-.25-3.33-.38-7-.38-11.14,0-8.56.74-14.72,2.21-18.41s3.87-5.59,7.2-5.59a5.87,5.87,0,0,1,3.61,1.11,9.22,9.22,0,0,1,2.44,2.78,12.82,12.82,0,0,1,1.39,3.7,18.52,18.52,0,0,1,.43,3.92H211.3q0-10.49-5-16.08T190,116.5a24.67,24.67,0,0,0-11,2.2,17.42,17.42,0,0,0-7.08,6.58,30.46,30.46,0,0,0-3.8,10.91,92.47,92.47,0,0,0-1.1,15.15,141.14,141.14,0,0,0,.78,15.7,34.81,34.81,0,0,0,3,11.38,15,15,0,0,0,6.24,6.81,21.3,21.3,0,0,0,10.34,2.23,19.3,19.3,0,0,0,8.4-1.68,14.52,14.52,0,0,0,6-5.72h.19v6.34h10.19v-37Z" fill="#fff"/>
</svg>
