<svg id="Layer_1" data-name="Layer 1" xmlns="http://www.w3.org/2000/svg" width="300" height="300" viewBox="0 0 300 300">
  <defs>
    <style>
      .cls-1 {
        fill: #00b23d;
      }

      .cls-2 {
        fill: #fff;
      }
    </style>
  </defs>
  <g>
    <rect class="cls-1" width="300" height="300"/>
    <path class="cls-2" d="M83.51,182.6a32.81,32.81,0,0,0,21.24-7.9l67.19,33.59c-.05.64-.2,1.23-.2,1.89a33.1,33.1,0,1,0,33.1-33.09A32.75,32.75,0,0,0,183.6,185l-67.18-33.59c0-.64.17-1.24.17-1.88s-.14-1.26-.17-1.9L183.6,114A32.74,32.74,0,0,0,204.84,122a33.09,33.09,0,1,0-33.1-33.1c0,.66.15,1.26.2,1.9l-67.19,33.59A33,33,0,1,0,83.51,182.6Z" transform="translate(-0.43 0.47)"/>
  </g>
</svg>
