<svg id="Layer_1" data-name="Layer 1" xmlns="http://www.w3.org/2000/svg" width="300.94" height="300.94" viewBox="0 0 300.94 300.94">
  <defs>
    <style>
      .cls-1 {
        fill: #00abe3;
      }

      .cls-2 {
        fill: #fff;
      }
    </style>
  </defs>
  <g>
    <rect class="cls-1" width="300.94" height="300.94"/>
    <path class="cls-2" d="M81.68,118.69c0,8.84.21,17.73.26,26.62q0,14.34,0,28.68c0,53.54,49.15,68.72,58.58,68.72s46.37.86,53,.86,25.81-1.75,25.81-20.92-13.58-26.05-22.74-26.05H160c-26.08,0-30.25-11.43-30.25-22,0-5,.32-14.89.63-25.05h61.27c9.18,0,26.65-2.15,26.65-18.76s-8.06-25.12-18.88-25.12H131.12c-.07-24-1.64-50.16-25.26-50.16-9.77,0-17.7,4-21,13.84-4.39,13-3.23,28.14-3.18,41.64C81.67,113.54,81.68,116.12,81.68,118.69Z" transform="translate(0.04 0.94)"/>
  </g>
</svg>
