<svg id="Layer_1" data-name="Layer 1" xmlns="http://www.w3.org/2000/svg" width="300" height="300" viewBox="0 0 300 300">
  <defs>
    <style>
      .cls-1 {
        fill: #235b9e;
      }

      .cls-2 {
        fill: #fff;
      }

      .cls-3 {
        fill: #ff8405;
      }
    </style>
  </defs>
  <g>
    <rect class="cls-1" width="300" height="300"/>
    <path class="cls-2" d="M125.43,243.28h37.5V149.53h27.83l3.42-37.5h-29.8V97c0-7.31,4.87-9,8.29-9h21V55.9l-29-.12c-32.16,0-39.47,24-39.47,39.3v17H106.68v37.5h18.75Z" transform="translate(-0.43 0.47)"/>
  </g>
  <g>
    <rect class="cls-3" width="300" height="300"/>
    <g>
      <path class="cls-2" d="M81.67,243.06a24.89,24.89,0,1,0-25-24.89A24.95,24.95,0,0,0,81.67,243.06Z" transform="translate(-0.43 0.47)"/>
      <path class="cls-2" d="M144.37,243.23h36.08A123.88,123.88,0,0,0,56.72,119.49v35.94a87.69,87.69,0,0,1,87.65,87.8Z" transform="translate(-0.43 0.47)"/>
      <path class="cls-2" d="M208.11,243.28h36.07c0-103.39-84.07-187.5-187.4-187.5V91.72C140.22,91.72,208.11,159.71,208.11,243.28Z" transform="translate(-0.43 0.47)"/>
    </g>
  </g>
</svg>
